<svg width="21" height="20" viewBox="0 0 21 20" fill="none" xmlns="http://www.w3.org/2000/svg">
<path fill-rule="evenodd" clip-rule="evenodd" d="M2.63925 -0.000488281C12.5911 -0.000488281 20.6905 8.07527 20.7327 18.0171V18.0177H20.7342V19.0696H20.7224C20.6961 19.3029 20.5917 19.5204 20.4262 19.6869C20.2608 19.8534 20.0439 19.9592 19.8108 19.987V19.9994H17.9405V19.9973C17.6875 19.992 17.445 19.895 17.2582 19.7243C17.0714 19.5535 16.953 19.3208 16.925 19.0693H16.9132V18.0174H16.9238C16.8816 10.1751 10.4909 3.80812 2.63895 3.80812C2.6315 3.80812 2.62404 3.80758 2.61659 3.80704C2.61038 3.80658 2.60417 3.80613 2.59795 3.80599V3.82057H1.54605V3.80873C1.31276 3.78244 1.0952 3.67809 0.928671 3.51261C0.762144 3.34713 0.656424 3.13023 0.628666 2.89711H0.616215V1.02682H0.618341C0.623635 0.773823 0.720665 0.531365 0.891376 0.344566C1.06209 0.157767 1.29485 0.0393509 1.54635 0.0113547V-0.000488281H2.59826V0.00163739C2.60444 0.00150008 2.61055 0.00105233 2.61669 0.000602958C2.62413 5.85273e-05 2.6316 -0.000488281 2.63925 -0.000488281ZM2.63925 7.2057C2.6316 7.2057 2.62413 7.20625 2.61669 7.2068L2.61668 7.2068C2.61054 7.20725 2.60443 7.20769 2.59825 7.20783V7.2057H1.54635V7.21755C1.29485 7.24554 1.06208 7.36396 0.891372 7.55076C0.720661 7.73756 0.62363 7.98002 0.618337 8.23301H0.616211V10.1033H0.628661C0.656472 10.3364 0.762209 10.5533 0.928726 10.7187C1.09524 10.8842 1.31277 10.9886 1.54604 11.0149V11.0268H2.59795V11.0122C2.60416 11.0123 2.61037 11.0128 2.61659 11.0132C2.62404 11.0138 2.63149 11.0143 2.63895 11.0143C6.5174 11.0143 9.67585 14.1485 9.71776 18.0172H9.70774V19.0691H9.71958C9.74758 19.3206 9.86599 19.5534 10.0528 19.7241C10.2396 19.8948 10.482 19.9918 10.735 19.9971V19.9993H12.605V19.9868C12.8381 19.959 13.055 19.8533 13.2205 19.6867C13.3859 19.5202 13.4903 19.3027 13.5166 19.0694H13.5285V18.0175H13.5267C13.4851 12.0483 8.61757 7.2057 2.63925 7.2057ZM3.46569 14.5391C3.11546 14.5391 2.76865 14.6081 2.44509 14.7421C2.12153 14.8762 1.82756 15.0727 1.57996 15.3204C1.33236 15.5681 1.136 15.8621 1.00208 16.1857C0.86816 16.5093 0.799314 16.8561 0.799473 17.2064C0.799473 17.5566 0.868453 17.9033 1.00247 18.2269C1.13649 18.5504 1.33293 18.8444 1.58057 19.092C1.82821 19.3396 2.12219 19.536 2.44575 19.6701C2.7693 19.8041 3.11609 19.873 3.4663 19.873C3.81651 19.873 4.16329 19.8041 4.48685 19.6701C4.8104 19.536 5.10439 19.3396 5.35203 19.092C5.59966 18.8444 5.7961 18.5504 5.93012 18.2269C6.06414 17.9033 6.13312 17.5566 6.13312 17.2064C6.13328 16.856 6.06439 16.5091 5.9304 16.1854C5.79641 15.8618 5.59993 15.5677 5.3522 15.3199C5.10448 15.0722 4.81036 14.8758 4.48666 14.7418C4.16296 14.6078 3.81603 14.5389 3.46569 14.5391Z" fill="#272D4E"/>
</svg>
