<svg width="41" height="41" viewBox="0 0 41 41" fill="none" xmlns="http://www.w3.org/2000/svg">
<path fill-rule="evenodd" clip-rule="evenodd" d="M0 20.4995C0 9.1777 9.17819 -0.000488281 20.5 -0.000488281C31.8218 -0.000488281 41 9.1777 41 20.4995C41 31.8213 31.8218 40.9995 20.5 40.9995C9.17819 40.9995 0 31.8213 0 20.4995ZM5.51913 14.7463C7.14548 10.5132 10.5139 7.14342 14.7469 5.51644L17.015 10.9055C15.6155 11.4155 14.344 12.2244 13.2889 13.2759C12.2339 14.3274 11.4207 15.5962 10.906 16.994L5.51913 14.7463ZM14.7301 35.4739C10.5054 33.8451 7.14397 30.4801 5.51959 26.2537L10.906 24.0255C11.4171 25.4196 12.2269 26.6851 13.2787 27.7333C14.3304 28.7815 15.5986 29.5871 16.9945 30.0935L14.7301 35.4739ZM35.4744 26.2694C33.8479 30.4878 30.4904 33.8461 26.2719 35.4732L24.0465 30.0935C25.4361 29.5786 26.697 28.7673 27.7413 27.7158C28.7857 26.6644 29.5885 25.3981 30.094 24.005L35.4744 26.2694ZM26.28 5.52682C30.4941 7.15532 33.8481 10.5122 35.4737 14.7276L30.094 16.953C29.5805 15.5716 28.7742 14.3176 27.7303 13.2772C26.6864 12.2369 25.4297 11.4348 24.0465 10.926L26.28 5.52682ZM14.35 20.4995C14.35 23.9025 17.097 26.6495 20.5 26.6495C23.903 26.6495 26.65 23.9025 26.65 20.4995C26.65 17.0965 23.903 14.3495 20.5 14.3495C17.097 14.3495 14.35 17.0965 14.35 20.4995Z" fill="white"/>
</svg>
