<svg width="164" height="26" viewBox="0 0 164 26" fill="none" xmlns="http://www.w3.org/2000/svg">
<path d="M26.0972 8.98323L18.0124 7.81932L14.3983 0.561463C14.2996 0.362747 14.1372 0.201882 13.9366 0.104101C13.4335 -0.141928 12.8222 0.0630961 12.5706 0.561463L8.95651 7.81932L0.871789 8.98323C0.648894 9.01477 0.445104 9.11886 0.289077 9.27657C0.10045 9.46862 -0.00349279 9.727 8.96227e-05 9.99492C0.00367204 10.2628 0.114486 10.5184 0.308182 10.7054L6.15759 16.3546L4.77564 24.3317C4.74323 24.5172 4.76396 24.7081 4.83548 24.8826C4.90699 25.057 5.02643 25.2082 5.18025 25.3189C5.33407 25.4295 5.51612 25.4953 5.70575 25.5087C5.89538 25.5221 6.085 25.4826 6.25311 25.3946L13.4845 21.6285L20.7158 25.3946C20.9132 25.4987 21.1425 25.5334 21.3622 25.4956C21.9163 25.4009 22.2888 24.8805 22.1933 24.3317L20.8114 16.3546L26.6608 10.7054C26.82 10.5509 26.925 10.349 26.9569 10.1282C27.0429 9.57622 26.6544 9.06524 26.0972 8.98323Z" fill="#FFC464"/>
<path d="M60.3545 8.98323L52.2698 7.81932L48.6557 0.561463C48.557 0.362747 48.3946 0.201882 48.194 0.104101C47.6908 -0.141928 47.0795 0.0630961 46.8279 0.561463L43.2138 7.81932L35.1291 8.98323C34.9062 9.01477 34.7024 9.11886 34.5464 9.27657C34.3578 9.46862 34.2538 9.727 34.2574 9.99492C34.261 10.2628 34.3718 10.5184 34.5655 10.7054L40.4149 16.3546L39.033 24.3317C39.0006 24.5172 39.0213 24.7081 39.0928 24.8826C39.1643 25.057 39.2838 25.2082 39.4376 25.3189C39.5914 25.4295 39.7734 25.4953 39.9631 25.5087C40.1527 25.5221 40.3423 25.4826 40.5104 25.3946L47.7418 21.6285L54.9732 25.3946C55.1706 25.4987 55.3998 25.5334 55.6195 25.4956C56.1736 25.4009 56.5462 24.8805 56.4506 24.3317L55.0687 16.3546L60.9181 10.7054C61.0773 10.5509 61.1824 10.349 61.2142 10.1282C61.3002 9.57622 60.9117 9.06524 60.3545 8.98323Z" fill="#FFC464"/>
<path d="M94.6125 8.98323L86.5278 7.81932L82.9137 0.561463C82.815 0.362747 82.6526 0.201882 82.452 0.104101C81.9489 -0.141928 81.3375 0.0630961 81.086 0.561463L77.4719 7.81932L69.3872 8.98323C69.1643 9.01477 68.9605 9.11886 68.8045 9.27657C68.6158 9.46862 68.5119 9.727 68.5155 9.99492C68.5191 10.2628 68.6299 10.5184 68.8236 10.7054L74.673 16.3546L73.291 24.3317C73.2586 24.5172 73.2793 24.7081 73.3509 24.8826C73.4224 25.057 73.5418 25.2082 73.6956 25.3189C73.8495 25.4295 74.0315 25.4953 74.2211 25.5087C74.4108 25.5221 74.6004 25.4826 74.7685 25.3946L81.9999 21.6285L89.2312 25.3946C89.4286 25.4987 89.6579 25.5334 89.8776 25.4956C90.4317 25.4009 90.8042 24.8805 90.7087 24.3317L89.3267 16.3546L95.1761 10.7054C95.3354 10.5509 95.4404 10.349 95.4723 10.1282C95.5582 9.57622 95.1698 9.06524 94.6125 8.98323Z" fill="#FFC464"/>
<path d="M128.87 8.98323L120.785 7.81932L117.171 0.561463C117.072 0.362747 116.91 0.201882 116.709 0.104101C116.206 -0.141928 115.595 0.0630961 115.343 0.561463L111.729 7.81932L103.644 8.98323C103.421 9.01477 103.218 9.11886 103.062 9.27657C102.873 9.46862 102.769 9.727 102.773 9.99492C102.776 10.2628 102.887 10.5184 103.081 10.7054L108.93 16.3546L107.548 24.3317C107.516 24.5172 107.536 24.7081 107.608 24.8826C107.679 25.057 107.799 25.2082 107.953 25.3189C108.107 25.4295 108.289 25.4953 108.478 25.5087C108.668 25.5221 108.857 25.4826 109.026 25.3946L116.257 21.6285L123.488 25.3946C123.686 25.4987 123.915 25.5334 124.135 25.4956C124.689 25.4009 125.061 24.8805 124.966 24.3317L123.584 16.3546L129.433 10.7054C129.592 10.5509 129.698 10.349 129.729 10.1282C129.815 9.57622 129.427 9.06524 128.87 8.98323Z" fill="#FFC464"/>
<path d="M163.129 8.98323L155.044 7.81932L151.43 0.561463C151.331 0.362747 151.169 0.201882 150.968 0.104101C150.465 -0.141928 149.854 0.0630961 149.602 0.561463L145.988 7.81932L137.903 8.98323C137.68 9.01477 137.477 9.11886 137.321 9.27657C137.132 9.46862 137.028 9.727 137.032 9.99492C137.035 10.2628 137.146 10.5184 137.34 10.7054L143.189 16.3546L141.807 24.3317C141.775 24.5172 141.795 24.7081 141.867 24.8826C141.938 25.057 142.058 25.2082 142.212 25.3189C142.366 25.4295 142.548 25.4953 142.737 25.5087C142.927 25.5221 143.116 25.4826 143.285 25.3946L150.516 21.6285L157.747 25.3946C157.945 25.4987 158.174 25.5334 158.394 25.4956C158.948 25.4009 159.32 24.8805 159.225 24.3317L157.843 16.3546L163.692 10.7054C163.851 10.5509 163.957 10.349 163.988 10.1282C164.074 9.57622 163.686 9.06524 163.129 8.98323Z" fill="#FFC464"/>
</svg>
