<svg width="129" height="129" viewBox="0 0 129 129" fill="none" xmlns="http://www.w3.org/2000/svg">
<path fill-rule="evenodd" clip-rule="evenodd" d="M64.1667 0C28.7292 0 0 28.7292 0 64.1667C0 99.6042 28.7292 128.333 64.1667 128.333C99.6042 128.333 128.333 99.6042 128.333 64.1667C128.333 28.7292 99.6042 0 64.1667 0ZM91.98 53.3167C92.4922 52.7313 92.8821 52.0493 93.1268 51.311C93.3715 50.5727 93.466 49.7928 93.4049 49.0174C93.3438 48.242 93.1282 47.4866 92.7709 46.7958C92.4135 46.1049 91.9216 45.4925 91.324 44.9945C90.7265 44.4965 90.0354 44.1231 89.2914 43.8962C88.5474 43.6693 87.7656 43.5935 86.9918 43.6732C86.2181 43.7529 85.4681 43.9865 84.786 44.3604C84.1039 44.7342 83.5035 45.2407 83.02 45.85L57.9367 75.9442L44.9575 62.9592C43.8573 61.8966 42.3838 61.3086 40.8543 61.3219C39.3249 61.3352 37.8618 61.9487 36.7802 63.0302C35.6987 64.1118 35.0852 65.5749 35.0719 67.1043C35.0586 68.6338 35.6466 70.1073 36.7092 71.2075L54.2092 88.7075C54.7823 89.2803 55.4686 89.7274 56.2241 90.0204C56.9796 90.3133 57.7879 90.4456 58.5974 90.4088C59.4069 90.372 60.1999 90.167 60.9257 89.8068C61.6516 89.4466 62.2945 88.9391 62.8133 88.3167L91.98 53.3167Z" fill="#013880"/>
</svg>
