<svg width="25" height="20" viewBox="0 0 25 20" fill="none" xmlns="http://www.w3.org/2000/svg">
<path d="M24.6183 2.37526C23.713 2.76579 22.7278 3.04686 21.713 3.15633C22.7666 2.5304 23.5556 1.54153 23.9319 0.375263C22.9433 0.963396 21.8602 1.37581 20.7308 1.5942C20.2587 1.08954 19.6878 0.687511 19.0535 0.413155C18.4193 0.138799 17.7354 -0.00200243 17.0444 -0.000476002C14.2485 -0.000476002 12 2.26579 12 5.04686C12 5.43739 12.0473 5.82792 12.1243 6.20366C7.93786 5.98473 4.20414 3.98473 1.72189 0.9226C1.2696 1.69513 1.03258 2.57475 1.0355 3.46994C1.0355 5.22141 1.92603 6.76579 3.28402 7.67408C2.48374 7.64256 1.7022 7.42259 1.00296 7.03206V7.09419C1.00296 9.54685 2.73668 11.5794 5.04733 12.0469C4.61348 12.1595 4.16718 12.2172 3.71893 12.2185C3.39053 12.2185 3.07988 12.1859 2.76627 12.1415C3.40532 14.1415 5.26627 15.5942 7.48224 15.6415C5.74852 16.9995 3.57692 17.7983 1.21893 17.7983C0.795858 17.7983 0.405325 17.7835 0 17.7362C2.23668 19.1711 4.89053 19.9995 7.74852 19.9995C17.0266 19.9995 22.1035 12.3131 22.1035 5.64153C22.1035 5.4226 22.1035 5.20366 22.0887 4.98473C23.071 4.26579 23.9319 3.37526 24.6183 2.37526Z" fill="#272D4E"/>
</svg>
