<svg width="21" height="20" viewBox="0 0 21 20" fill="none" xmlns="http://www.w3.org/2000/svg">
<path d="M10.7319 6.66476C8.89563 6.66476 7.39712 8.16327 7.39712 9.99951C7.39712 11.8358 8.89563 13.3343 10.7319 13.3343C12.5681 13.3343 14.0666 11.8358 14.0666 9.99951C14.0666 8.16327 12.5681 6.66476 10.7319 6.66476ZM20.7336 9.99951C20.7336 8.61858 20.7461 7.25015 20.6686 5.87172C20.591 4.27064 20.2258 2.84968 19.055 1.67889C17.8817 0.505597 16.4632 0.142852 14.8622 0.0652997C13.4812 -0.0122527 12.1128 0.000255832 10.7344 0.000255832C9.35344 0.000255832 7.98502 -0.0122527 6.60659 0.0652997C5.0055 0.142852 3.58454 0.508099 2.41375 1.67889C1.24046 2.85218 0.877715 4.27064 0.800163 5.87172C0.722611 7.25266 0.735119 8.62108 0.735119 9.99951C0.735119 11.3779 0.722611 12.7489 0.800163 14.1273C0.877715 15.7284 1.24296 17.1493 2.41375 18.3201C3.58705 19.4934 5.0055 19.8562 6.60659 19.9337C7.98752 20.0113 9.35594 19.9988 10.7344 19.9988C12.1153 19.9988 13.4837 20.0113 14.8622 19.9337C16.4632 19.8562 17.8842 19.4909 19.055 18.3201C20.2283 17.1468 20.591 15.7284 20.6686 14.1273C20.7486 12.7489 20.7336 11.3804 20.7336 9.99951ZM10.7319 15.1305C7.89245 15.1305 5.60091 12.8389 5.60091 9.99951C5.60091 7.16009 7.89245 4.86854 10.7319 4.86854C13.5713 4.86854 15.8628 7.16009 15.8628 9.99951C15.8628 12.8389 13.5713 15.1305 10.7319 15.1305ZM16.073 5.85671C15.41 5.85671 14.8747 5.32135 14.8747 4.6584C14.8747 3.99545 15.41 3.46009 16.073 3.46009C16.7359 3.46009 17.2713 3.99545 17.2713 4.6584C17.2715 4.81582 17.2406 4.97174 17.1805 5.11721C17.1203 5.26268 17.0321 5.39486 16.9208 5.50618C16.8094 5.61749 16.6773 5.70575 16.5318 5.7659C16.3863 5.82605 16.2304 5.85691 16.073 5.85671Z" fill="#272D4E"/>
</svg>
