<svg width="78" height="78" viewBox="0 0 78 78" fill="none" xmlns="http://www.w3.org/2000/svg">
<path d="M70.1998 39.0003C70.1998 47.275 66.9127 55.2109 61.0615 61.062C55.2104 66.9132 47.2746 70.2003 38.9998 70.2003C30.725 70.2003 22.7892 66.9132 16.9381 61.062C11.0869 55.2109 7.7998 47.275 7.7998 39.0003C7.7998 30.7255 11.0869 22.7897 16.9381 16.9386C22.7892 11.0874 30.725 7.80029 38.9998 7.80029C47.2746 7.80029 55.2104 11.0874 61.0615 16.9386C66.9127 22.7897 70.1998 30.7255 70.1998 39.0003ZM23.3998 39.0003C23.3998 39.5175 23.6053 40.0135 23.9709 40.3792C24.3366 40.7448 24.8326 40.9503 25.3498 40.9503H37.0498V52.6503C37.0498 53.1675 37.2552 53.6635 37.6209 54.0292C37.9866 54.3948 38.4826 54.6003 38.9998 54.6003C39.517 54.6003 40.013 54.3948 40.3787 54.0292C40.7444 53.6635 40.9498 53.1675 40.9498 52.6503V40.9503H52.6498C53.167 40.9503 53.663 40.7448 54.0287 40.3792C54.3944 40.0135 54.5998 39.5175 54.5998 39.0003C54.5998 38.4831 54.3944 37.9871 54.0287 37.6214C53.663 37.2557 53.167 37.0503 52.6498 37.0503H40.9498V25.3503C40.9498 24.8331 40.7444 24.3371 40.3787 23.9714C40.013 23.6057 39.517 23.4003 38.9998 23.4003C38.4826 23.4003 37.9866 23.6057 37.6209 23.9714C37.2552 24.3371 37.0498 24.8331 37.0498 25.3503V37.0503H25.3498C24.8326 37.0503 24.3366 37.2557 23.9709 37.6214C23.6053 37.9871 23.3998 38.4831 23.3998 39.0003Z" fill="#436FA8"/>
</svg>
