<svg width="473" height="214" viewBox="0 0 473 214" fill="none" xmlns="http://www.w3.org/2000/svg">
<path d="M469.439 6.7456C467.769 6.7456 466.416 5.39187 466.416 3.72192C466.416 2.05197 467.769 0.698242 469.439 0.698242C471.109 0.698242 472.463 2.05197 472.463 3.72192C472.463 5.39187 471.109 6.7456 469.439 6.7456Z" fill="#013880" stroke="black"/>
<path d="M469.439 58.4243C467.769 58.4243 466.416 57.0706 466.416 55.4006C466.416 53.7307 467.769 52.377 469.439 52.377C471.109 52.377 472.463 53.7307 472.463 55.4006C472.463 57.0706 471.109 58.4243 469.439 58.4243Z" fill="#013880" stroke="black"/>
<path d="M469.439 110.104C467.769 110.104 466.416 108.75 466.416 107.08C466.416 105.41 467.769 104.056 469.439 104.056C471.109 104.056 472.463 105.41 472.463 107.08C472.463 108.75 471.109 110.104 469.439 110.104Z" fill="#013880" stroke="black"/>
<path d="M469.439 161.783C467.769 161.783 466.416 160.429 466.416 158.759C466.416 157.089 467.769 155.735 469.439 155.735C471.109 155.735 472.463 157.089 472.463 158.759C472.463 160.429 471.109 161.783 469.439 161.783Z" fill="#013880" stroke="black"/>
<path d="M469.439 213.462C467.769 213.462 466.416 212.108 466.416 210.438C466.416 208.768 467.769 207.415 469.439 207.415C471.109 207.415 472.463 208.768 472.463 210.438C472.463 212.108 471.109 213.462 469.439 213.462Z" fill="#013880" stroke="black"/>
<path d="M417.76 6.74512C416.09 6.74512 414.737 5.39138 414.737 3.72144C414.737 2.05149 416.09 0.697754 417.76 0.697754C419.43 0.697754 420.784 2.05149 420.784 3.72144C420.784 5.39138 419.43 6.74512 417.76 6.74512Z" fill="#013880" stroke="black"/>
<path d="M417.76 58.4243C416.09 58.4243 414.737 57.0706 414.737 55.4006C414.737 53.7307 416.09 52.377 417.76 52.377C419.43 52.377 420.784 53.7307 420.784 55.4006C420.784 57.0706 419.43 58.4243 417.76 58.4243Z" fill="#013880" stroke="black"/>
<path d="M417.76 110.104C416.09 110.104 414.737 108.75 414.737 107.08C414.737 105.41 416.09 104.056 417.76 104.056C419.43 104.056 420.784 105.41 420.784 107.08C420.784 108.75 419.43 110.104 417.76 110.104Z" fill="#013880" stroke="black"/>
<path d="M417.76 161.783C416.09 161.783 414.737 160.429 414.737 158.759C414.737 157.089 416.09 155.735 417.76 155.735C419.43 155.735 420.784 157.089 420.784 158.759C420.784 160.429 419.43 161.783 417.76 161.783Z" fill="#013880" stroke="black"/>
<path d="M417.76 213.462C416.09 213.462 414.736 212.108 414.736 210.438C414.736 208.768 416.09 207.415 417.76 207.415C419.429 207.415 420.783 208.768 420.783 210.438C420.783 212.108 419.429 213.462 417.76 213.462Z" fill="#013880" stroke="black"/>
<path d="M366.081 6.74512C364.411 6.74512 363.057 5.39138 363.057 3.72144C363.057 2.05149 364.411 0.697754 366.081 0.697754C367.751 0.697754 369.104 2.05149 369.104 3.72144C369.104 5.39138 367.751 6.74512 366.081 6.74512Z" fill="#013880" stroke="black"/>
<path d="M366.081 58.4243C364.411 58.4243 363.057 57.0706 363.057 55.4006C363.057 53.7307 364.411 52.377 366.081 52.377C367.751 52.377 369.104 53.7307 369.104 55.4006C369.104 57.0706 367.751 58.4243 366.081 58.4243Z" fill="#013880" stroke="black"/>
<path d="M366.081 110.104C364.411 110.104 363.057 108.75 363.057 107.08C363.057 105.41 364.411 104.056 366.081 104.056C367.751 104.056 369.104 105.41 369.104 107.08C369.104 108.75 367.751 110.104 366.081 110.104Z" fill="#013880" stroke="black"/>
<path d="M366.081 161.783C364.411 161.783 363.057 160.429 363.057 158.759C363.057 157.089 364.411 155.735 366.081 155.735C367.751 155.735 369.104 157.089 369.104 158.759C369.104 160.429 367.751 161.783 366.081 161.783Z" fill="#013880" stroke="black"/>
<path d="M366.081 213.462C364.411 213.462 363.057 212.108 363.057 210.438C363.057 208.768 364.411 207.415 366.081 207.415C367.751 207.415 369.104 208.768 369.104 210.438C369.104 212.108 367.751 213.462 366.081 213.462Z" fill="#013880" stroke="black"/>
<path d="M314.402 6.74512C312.732 6.74512 311.378 5.39138 311.378 3.72144C311.378 2.05149 312.732 0.697754 314.402 0.697754C316.072 0.697754 317.425 2.05149 317.425 3.72144C317.425 5.39138 316.072 6.74512 314.402 6.74512Z" fill="#013880" stroke="black"/>
<path d="M314.402 58.4243C312.732 58.4243 311.378 57.0706 311.378 55.4006C311.378 53.7307 312.732 52.377 314.402 52.377C316.072 52.377 317.425 53.7307 317.425 55.4006C317.425 57.0706 316.072 58.4243 314.402 58.4243Z" fill="#013880" stroke="black"/>
<path d="M314.402 110.104C312.732 110.104 311.378 108.75 311.378 107.08C311.378 105.41 312.732 104.056 314.402 104.056C316.072 104.056 317.425 105.41 317.425 107.08C317.425 108.75 316.072 110.104 314.402 110.104Z" fill="#013880" stroke="black"/>
<path d="M314.402 161.783C312.732 161.783 311.378 160.429 311.378 158.759C311.378 157.089 312.732 155.735 314.402 155.735C316.072 155.735 317.425 157.089 317.425 158.759C317.425 160.429 316.072 161.783 314.402 161.783Z" fill="#013880" stroke="black"/>
<path d="M314.402 213.462C312.732 213.462 311.378 212.108 311.378 210.438C311.378 208.768 312.732 207.415 314.402 207.415C316.072 207.415 317.425 208.768 317.425 210.438C317.425 212.108 316.072 213.462 314.402 213.462Z" fill="#013880" stroke="black"/>
<path d="M262.723 6.74512C261.053 6.74512 259.699 5.39138 259.699 3.72144C259.699 2.05149 261.053 0.697754 262.723 0.697754C264.392 0.697754 265.746 2.05149 265.746 3.72144C265.746 5.39138 264.392 6.74512 262.723 6.74512Z" fill="#013880" stroke="black"/>
<path d="M262.723 58.4243C261.053 58.4243 259.699 57.0706 259.699 55.4006C259.699 53.7307 261.053 52.377 262.723 52.377C264.392 52.377 265.746 53.7307 265.746 55.4006C265.746 57.0706 264.392 58.4243 262.723 58.4243Z" fill="#013880" stroke="black"/>
<path d="M262.723 110.104C261.053 110.104 259.699 108.75 259.699 107.08C259.699 105.41 261.053 104.056 262.723 104.056C264.392 104.056 265.746 105.41 265.746 107.08C265.746 108.75 264.392 110.104 262.723 110.104Z" fill="#013880" stroke="black"/>
<path d="M262.723 161.783C261.053 161.783 259.699 160.429 259.699 158.759C259.699 157.089 261.053 155.735 262.723 155.735C264.392 155.735 265.746 157.089 265.746 158.759C265.746 160.429 264.392 161.783 262.723 161.783Z" fill="#013880" stroke="black"/>
<path d="M262.723 213.462C261.053 213.462 259.699 212.108 259.699 210.438C259.699 208.768 261.053 207.415 262.723 207.415C264.392 207.415 265.746 208.768 265.746 210.438C265.746 212.108 264.392 213.462 262.723 213.462Z" fill="#013880" stroke="black"/>
<path d="M211.043 6.74512C209.373 6.74512 208.02 5.39138 208.02 3.72144C208.02 2.05149 209.373 0.697754 211.043 0.697754C212.713 0.697754 214.067 2.05149 214.067 3.72144C214.067 5.39139 212.713 6.74512 211.043 6.74512Z" fill="#013880" stroke="black"/>
<path d="M211.043 58.4243C209.373 58.4243 208.02 57.0706 208.02 55.4006C208.02 53.7307 209.373 52.377 211.043 52.377C212.713 52.377 214.067 53.7307 214.067 55.4006C214.067 57.0706 212.713 58.4243 211.043 58.4243Z" fill="#013880" stroke="black"/>
<path d="M211.043 110.104C209.373 110.104 208.02 108.75 208.02 107.08C208.02 105.41 209.373 104.056 211.043 104.056C212.713 104.056 214.067 105.41 214.067 107.08C214.067 108.75 212.713 110.104 211.043 110.104Z" fill="#013880" stroke="black"/>
<path d="M211.043 161.783C209.373 161.783 208.02 160.429 208.02 158.759C208.02 157.089 209.373 155.735 211.043 155.735C212.713 155.735 214.067 157.089 214.067 158.759C214.067 160.429 212.713 161.783 211.043 161.783Z" fill="#013880" stroke="black"/>
<path d="M211.043 213.462C209.373 213.462 208.02 212.108 208.02 210.438C208.02 208.768 209.373 207.415 211.043 207.415C212.713 207.415 214.067 208.768 214.067 210.438C214.067 212.108 212.713 213.462 211.043 213.462Z" fill="#013880" stroke="black"/>
<path d="M159.364 6.74512C157.694 6.74512 156.341 5.39138 156.341 3.72144C156.341 2.05149 157.694 0.697754 159.364 0.697754C161.034 0.697754 162.388 2.05149 162.388 3.72144C162.388 5.39139 161.034 6.74512 159.364 6.74512Z" fill="#013880" stroke="black"/>
<path d="M159.364 58.4243C157.694 58.4243 156.341 57.0706 156.341 55.4006C156.341 53.7307 157.694 52.377 159.364 52.377C161.034 52.377 162.388 53.7307 162.388 55.4006C162.388 57.0706 161.034 58.4243 159.364 58.4243Z" fill="#013880" stroke="black"/>
<path d="M159.364 110.104C157.694 110.104 156.341 108.75 156.341 107.08C156.341 105.41 157.694 104.056 159.364 104.056C161.034 104.056 162.388 105.41 162.388 107.08C162.388 108.75 161.034 110.104 159.364 110.104Z" fill="#013880" stroke="black"/>
<path d="M159.364 161.783C157.694 161.783 156.341 160.429 156.341 158.759C156.341 157.089 157.694 155.735 159.364 155.735C161.034 155.735 162.388 157.089 162.388 158.759C162.388 160.429 161.034 161.783 159.364 161.783Z" fill="#013880" stroke="black"/>
<path d="M159.364 213.462C157.694 213.462 156.341 212.108 156.341 210.438C156.341 208.768 157.694 207.415 159.364 207.415C161.034 207.415 162.388 208.768 162.388 210.438C162.388 212.108 161.034 213.462 159.364 213.462Z" fill="#013880" stroke="black"/>
<path d="M107.685 6.74512C106.015 6.74512 104.661 5.39138 104.661 3.72144C104.661 2.05149 106.015 0.697754 107.685 0.697754C109.355 0.697754 110.708 2.05149 110.708 3.72144C110.708 5.39139 109.355 6.74512 107.685 6.74512Z" fill="#013880" stroke="black"/>
<path d="M107.685 58.4243C106.015 58.4243 104.661 57.0706 104.661 55.4006C104.661 53.7307 106.015 52.377 107.685 52.377C109.355 52.377 110.708 53.7307 110.708 55.4006C110.708 57.0706 109.355 58.4243 107.685 58.4243Z" fill="#013880" stroke="black"/>
<path d="M107.685 110.104C106.015 110.104 104.661 108.75 104.661 107.08C104.661 105.41 106.015 104.056 107.685 104.056C109.355 104.056 110.708 105.41 110.708 107.08C110.708 108.75 109.355 110.104 107.685 110.104Z" fill="#013880" stroke="black"/>
<path d="M107.685 161.783C106.015 161.783 104.661 160.429 104.661 158.759C104.661 157.089 106.015 155.735 107.685 155.735C109.355 155.735 110.708 157.089 110.708 158.759C110.708 160.429 109.355 161.783 107.685 161.783Z" fill="#013880" stroke="black"/>
<path d="M107.685 213.462C106.015 213.462 104.661 212.108 104.661 210.438C104.661 208.768 106.015 207.415 107.685 207.415C109.355 207.415 110.708 208.768 110.708 210.438C110.708 212.108 109.355 213.462 107.685 213.462Z" fill="#013880" stroke="black"/>
<path d="M56.0057 6.74512C54.3358 6.74512 52.9821 5.39138 52.9821 3.72144C52.9821 2.05149 54.3358 0.697754 56.0057 0.697754C57.6756 0.697754 59.0293 2.05149 59.0293 3.72144C59.0293 5.39138 57.6756 6.74512 56.0057 6.74512Z" fill="#013880" stroke="black"/>
<path d="M56.0057 58.4243C54.3358 58.4243 52.9821 57.0706 52.9821 55.4006C52.9821 53.7307 54.3358 52.377 56.0057 52.377C57.6756 52.377 59.0293 53.7307 59.0293 55.4006C59.0293 57.0706 57.6756 58.4243 56.0057 58.4243Z" fill="#013880" stroke="black"/>
<path d="M56.0057 110.104C54.3358 110.104 52.9821 108.75 52.9821 107.08C52.9821 105.41 54.3358 104.056 56.0057 104.056C57.6756 104.056 59.0293 105.41 59.0293 107.08C59.0293 108.75 57.6756 110.104 56.0057 110.104Z" fill="#013880" stroke="black"/>
<path d="M56.0057 161.783C54.3358 161.783 52.9821 160.429 52.9821 158.759C52.9821 157.089 54.3358 155.735 56.0057 155.735C57.6756 155.735 59.0293 157.089 59.0293 158.759C59.0293 160.429 57.6756 161.783 56.0057 161.783Z" fill="#013880" stroke="black"/>
<path d="M56.0057 213.462C54.3358 213.462 52.9821 212.108 52.9821 210.438C52.9821 208.768 54.3358 207.415 56.0057 207.415C57.6756 207.415 59.0293 208.768 59.0293 210.438C59.0293 212.108 57.6756 213.462 56.0057 213.462Z" fill="#013880" stroke="black"/>
<path d="M4.32652 6.74512C2.65666 6.74512 1.30295 5.39138 1.30295 3.72144C1.30295 2.05149 2.65666 0.697754 4.32652 0.697754C5.99638 0.697754 7.3501 2.05149 7.3501 3.72144C7.3501 5.39138 5.99638 6.74512 4.32652 6.74512Z" fill="#013880" stroke="black"/>
<path d="M4.32651 58.4243C2.65664 58.4243 1.30292 57.0706 1.30292 55.4006C1.30292 53.7307 2.65664 52.377 4.32651 52.377C5.99638 52.377 7.3501 53.7307 7.3501 55.4006C7.3501 57.0706 5.99638 58.4243 4.32651 58.4243Z" fill="#013880" stroke="black"/>
<path d="M4.32651 110.104C2.65664 110.104 1.30292 108.75 1.30292 107.08C1.30292 105.41 2.65664 104.056 4.32651 104.056C5.99638 104.056 7.3501 105.41 7.3501 107.08C7.3501 108.75 5.99638 110.104 4.32651 110.104Z" fill="#013880" stroke="black"/>
<path d="M4.32651 161.783C2.65664 161.783 1.30292 160.429 1.30292 158.759C1.30292 157.089 2.65664 155.735 4.32651 155.735C5.99638 155.735 7.3501 157.089 7.3501 158.759C7.3501 160.429 5.99638 161.783 4.32651 161.783Z" fill="#013880" stroke="black"/>
<path d="M4.32651 213.462C2.65664 213.462 1.30292 212.108 1.30292 210.438C1.30292 208.768 2.65664 207.415 4.32651 207.415C5.99638 207.415 7.3501 208.768 7.3501 210.438C7.3501 212.108 5.99638 213.462 4.32651 213.462Z" fill="#013880" stroke="black"/>
</svg>
