<svg width="110" height="75" viewBox="0 0 110 75" fill="none" xmlns="http://www.w3.org/2000/svg">
<path d="M55 20.4545H34.375V40.9091H55V20.4545ZM61.875 54.5455V61.3636H27.5V54.5455H61.875ZM61.875 13.6364V47.7273H27.5V13.6364H61.875ZM96.25 54.5455V61.3636H68.75V54.5455H96.25ZM96.25 40.9091V47.7273H68.75V40.9091H96.25ZM96.25 27.2727V34.0909H68.75V27.2727H96.25ZM96.25 13.6364V20.4545H68.75V13.6364H96.25ZM13.75 64.7727V13.6364H6.875V64.7727C6.875 65.696 7.21517 66.495 7.89551 67.1697C8.57585 67.8445 9.38151 68.1818 10.3125 68.1818C11.2435 68.1818 12.0492 67.8445 12.7295 67.1697C13.4098 66.495 13.75 65.696 13.75 64.7727ZM103.125 64.7727V6.81818H20.625V64.7727C20.625 65.9446 20.4281 67.081 20.0342 68.1818H99.6875C100.618 68.1818 101.424 67.8445 102.104 67.1697C102.785 66.495 103.125 65.696 103.125 64.7727ZM110 0V64.7727C110 67.6136 108.997 70.0284 106.992 72.017C104.987 74.0057 102.552 75 99.6875 75H10.3125C7.44792 75 5.01302 74.0057 3.00781 72.017C1.0026 70.0284 0 67.6136 0 64.7727V6.81818H13.75V0H110Z" fill="#436FA8"/>
</svg>
