<svg width="90" height="90" viewBox="0 0 90 90" fill="none" xmlns="http://www.w3.org/2000/svg">
<path d="M60.4687 27.4219V23.2031C60.4687 22.8164 60.1523 22.5 59.7656 22.5H26.0156C25.6289 22.5 25.3125 22.8164 25.3125 23.2031V27.4219C25.3125 27.8086 25.6289 28.125 26.0156 28.125H59.7656C60.1523 28.125 60.4687 27.8086 60.4687 27.4219ZM26.0156 35.1562C25.6289 35.1562 25.3125 35.4727 25.3125 35.8594V40.0781C25.3125 40.4648 25.6289 40.7812 26.0156 40.7812H42.1875C42.5742 40.7812 42.8906 40.4648 42.8906 40.0781V35.8594C42.8906 35.4727 42.5742 35.1562 42.1875 35.1562H26.0156ZM38.6719 74.8828H18.2812V13.0078H67.5V43.2422C67.5 43.6289 67.8164 43.9453 68.2031 43.9453H73.125C73.5117 43.9453 73.8281 43.6289 73.8281 43.2422V9.49219C73.8281 7.93652 72.5713 6.67969 71.0156 6.67969H14.7656C13.21 6.67969 11.9531 7.93652 11.9531 9.49219V78.3984C11.9531 79.9541 13.21 81.2109 14.7656 81.2109H38.6719C39.0586 81.2109 39.375 80.8945 39.375 80.5078V75.5859C39.375 75.1992 39.0586 74.8828 38.6719 74.8828ZM77.8447 79.4092L69.6445 71.209C71.6045 68.6162 72.7734 65.3818 72.7734 61.875C72.7734 53.332 65.8477 46.4062 57.3047 46.4062C48.7617 46.4062 41.8359 53.332 41.8359 61.875C41.8359 70.418 48.7617 77.3438 57.3047 77.3438C60.4512 77.3438 63.3691 76.4033 65.8125 74.7949L74.1357 83.1182C74.2764 83.2588 74.4521 83.3203 74.6279 83.3203C74.8037 83.3203 74.9883 83.25 75.1201 83.1182L77.8447 80.3936C77.9096 80.329 77.961 80.2523 77.9961 80.1679C78.0312 80.0834 78.0493 79.9928 78.0493 79.9014C78.0493 79.8099 78.0312 79.7193 77.9961 79.6349C77.961 79.5504 77.9096 79.4737 77.8447 79.4092ZM57.3047 71.7188C51.8643 71.7188 47.4609 67.3154 47.4609 61.875C47.4609 56.4346 51.8643 52.0312 57.3047 52.0312C62.7451 52.0312 67.1484 56.4346 67.1484 61.875C67.1484 67.3154 62.7451 71.7188 57.3047 71.7188Z" fill="#436FA8"/>
</svg>
