<svg width="96" height="96" viewBox="0 0 96 96" fill="none" xmlns="http://www.w3.org/2000/svg">
<g clip-path="url(#clip0_385_1448)">
<path d="M39 16H3V80H51V28H39V16ZM3 8H43L59 24V80C59 82.1217 58.1572 84.1566 56.6569 85.6569C55.1566 87.1571 53.1217 88 51 88H3C0.878269 88 -1.15656 87.1571 -2.65685 85.6569C-4.15715 84.1566 -5 82.1217 -5 80V16C-5 13.8783 -4.15715 11.8434 -2.65685 10.3431C-1.15656 8.84285 0.878269 8 3 8ZM11 44H43V52H11V44ZM11 60H43V68H11V60Z" fill="#436FA8"/>
<path fill-rule="evenodd" clip-rule="evenodd" d="M53.0003 69.1665C45.9128 69.1665 40.167 74.9123 40.167 81.9998C40.167 89.0873 45.9128 94.8332 53.0003 94.8332C60.0878 94.8332 65.8337 89.0873 65.8337 81.9998C65.8337 74.9123 60.0878 69.1665 53.0003 69.1665ZM58.563 79.8298C58.6654 79.7128 58.7434 79.5764 58.7923 79.4287C58.8413 79.281 58.8602 79.1251 58.848 78.97C58.8358 78.8149 58.7926 78.6638 58.7212 78.5257C58.6497 78.3875 58.5513 78.265 58.4318 78.1654C58.3123 78.0658 58.1741 77.9911 58.0253 77.9457C57.8765 77.9004 57.7201 77.8852 57.5654 77.9011C57.4106 77.9171 57.2606 77.9638 57.1242 78.0386C56.9878 78.1133 56.8677 78.2146 56.771 78.3365L51.7543 84.3553L49.1585 81.7583C48.9385 81.5458 48.6438 81.4282 48.3379 81.4309C48.032 81.4335 47.7393 81.5562 47.523 81.7725C47.3067 81.9889 47.184 82.2815 47.1814 82.5874C47.1787 82.8933 47.2963 83.188 47.5088 83.408L51.0088 86.908C51.1235 87.0226 51.2607 87.112 51.4118 87.1706C51.5629 87.2292 51.7246 87.2556 51.8865 87.2483C52.0484 87.2409 52.207 87.1999 52.3521 87.1279C52.4973 87.0558 52.6259 86.9543 52.7297 86.8298L58.563 79.8298Z" fill="#70C217"/>
</g>
<defs>
<clipPath id="clip0_385_1448">
<rect width="96" height="96" fill="white"/>
</clipPath>
</defs>
</svg>
