<svg width="1885" height="507" viewBox="0 0 1885 507" fill="none" xmlns="http://www.w3.org/2000/svg">
<rect width="1888" height="506.224" transform="translate(-3)" fill="#013880"/>
<circle cx="174.53" cy="477.014" r="2.20956" transform="rotate(-180 174.53 477.014)" fill="white"/>
<circle cx="142.124" cy="477.014" r="2.20956" transform="rotate(-180 142.124 477.014)" fill="white"/>
<circle cx="109.717" cy="477.014" r="2.20956" transform="rotate(-180 109.717 477.014)" fill="white"/>
<circle cx="77.31" cy="477.014" r="2.20956" transform="rotate(-180 77.31 477.014)" fill="white"/>
<circle cx="44.903" cy="477.014" r="2.20956" transform="rotate(-180 44.903 477.014)" fill="white"/>
<circle cx="174.531" cy="444.607" r="2.20956" transform="rotate(-180 174.531 444.607)" fill="white"/>
<circle cx="142.124" cy="444.607" r="2.20956" transform="rotate(-180 142.124 444.607)" fill="white"/>
<circle cx="109.717" cy="444.607" r="2.20956" transform="rotate(-180 109.717 444.607)" fill="white"/>
<circle cx="77.31" cy="444.607" r="2.20956" transform="rotate(-180 77.31 444.607)" fill="white"/>
<circle cx="44.903" cy="444.607" r="2.20956" transform="rotate(-180 44.903 444.607)" fill="white"/>
<circle cx="174.531" cy="412.201" r="2.20956" transform="rotate(-180 174.531 412.201)" fill="white"/>
<circle cx="142.124" cy="412.201" r="2.20956" transform="rotate(-180 142.124 412.201)" fill="white"/>
<circle cx="109.717" cy="412.201" r="2.20956" transform="rotate(-180 109.717 412.201)" fill="white"/>
<circle cx="77.31" cy="412.201" r="2.20956" transform="rotate(-180 77.31 412.201)" fill="white"/>
<circle cx="44.903" cy="412.201" r="2.20956" transform="rotate(-180 44.903 412.201)" fill="white"/>
<circle cx="174.531" cy="379.793" r="2.20956" transform="rotate(-180 174.531 379.793)" fill="white"/>
<circle cx="142.124" cy="379.793" r="2.20956" transform="rotate(-180 142.124 379.793)" fill="white"/>
<circle cx="109.717" cy="379.793" r="2.20956" transform="rotate(-180 109.717 379.793)" fill="white"/>
<circle cx="77.31" cy="379.793" r="2.20956" transform="rotate(-180 77.31 379.793)" fill="white"/>
<circle cx="44.903" cy="379.793" r="2.20956" transform="rotate(-180 44.903 379.793)" fill="white"/>
<circle cx="174.531" cy="347.386" r="2.20956" transform="rotate(-180 174.531 347.386)" fill="white"/>
<circle cx="142.124" cy="347.386" r="2.20956" transform="rotate(-180 142.124 347.386)" fill="white"/>
<circle cx="109.717" cy="347.386" r="2.20956" transform="rotate(-180 109.717 347.386)" fill="white"/>
<circle cx="77.31" cy="347.386" r="2.20956" transform="rotate(-180 77.31 347.386)" fill="white"/>
<circle cx="44.903" cy="347.386" r="2.20956" transform="rotate(-180 44.903 347.386)" fill="white"/>
<circle cx="174.531" cy="314.98" r="2.20956" transform="rotate(-180 174.531 314.98)" fill="white"/>
<circle cx="142.124" cy="314.98" r="2.20956" transform="rotate(-180 142.124 314.98)" fill="white"/>
<circle cx="109.717" cy="314.98" r="2.20956" transform="rotate(-180 109.717 314.98)" fill="white"/>
<circle cx="77.31" cy="314.98" r="2.20956" transform="rotate(-180 77.31 314.98)" fill="white"/>
<circle cx="44.903" cy="314.98" r="2.20956" transform="rotate(-180 44.903 314.98)" fill="white"/>
<circle cx="174.531" cy="282.573" r="2.20956" transform="rotate(-180 174.531 282.573)" fill="white"/>
<circle cx="142.124" cy="282.573" r="2.20956" transform="rotate(-180 142.124 282.573)" fill="white"/>
<circle cx="109.717" cy="282.573" r="2.20956" transform="rotate(-180 109.717 282.573)" fill="white"/>
<circle cx="77.31" cy="282.573" r="2.20956" transform="rotate(-180 77.31 282.573)" fill="white"/>
<circle cx="44.903" cy="282.573" r="2.20956" transform="rotate(-180 44.903 282.573)" fill="white"/>
<circle cx="174.531" cy="250.165" r="2.20956" transform="rotate(-180 174.531 250.165)" fill="white"/>
<circle cx="142.124" cy="250.165" r="2.20956" transform="rotate(-180 142.124 250.165)" fill="white"/>
<circle cx="109.717" cy="250.165" r="2.20956" transform="rotate(-180 109.717 250.165)" fill="white"/>
<circle cx="77.31" cy="250.165" r="2.20956" transform="rotate(-180 77.31 250.165)" fill="white"/>
<circle cx="44.903" cy="250.165" r="2.20956" transform="rotate(-180 44.903 250.165)" fill="white"/>
<circle cx="174.531" cy="217.759" r="2.20956" transform="rotate(-180 174.531 217.759)" fill="white"/>
<circle cx="142.124" cy="217.759" r="2.20956" transform="rotate(-180 142.124 217.759)" fill="white"/>
<circle cx="109.717" cy="217.759" r="2.20956" transform="rotate(-180 109.717 217.759)" fill="white"/>
<circle cx="77.31" cy="217.759" r="2.20956" transform="rotate(-180 77.31 217.759)" fill="white"/>
<circle cx="44.903" cy="217.759" r="2.20956" transform="rotate(-180 44.903 217.759)" fill="white"/>
<circle cx="174.531" cy="185.352" r="2.20956" transform="rotate(-180 174.531 185.352)" fill="white"/>
<circle cx="142.124" cy="185.352" r="2.20956" transform="rotate(-180 142.124 185.352)" fill="white"/>
<circle cx="109.717" cy="185.352" r="2.20956" transform="rotate(-180 109.717 185.352)" fill="white"/>
<circle cx="77.31" cy="185.352" r="2.20956" transform="rotate(-180 77.31 185.352)" fill="white"/>
<circle cx="44.903" cy="185.352" r="2.20956" transform="rotate(-180 44.903 185.352)" fill="white"/>
<circle cx="160.271" cy="180.948" r="123.229" stroke="#FFBA49" stroke-width="5"/>
<circle cx="42.3801" cy="47.3801" r="17.8801" stroke="#FFBA49" stroke-width="5"/>
<circle cx="1570.45" cy="390.497" r="2.17705" transform="rotate(-90 1570.45 390.497)" fill="white"/>
<circle cx="1570.45" cy="358.567" r="2.17705" transform="rotate(-90 1570.45 358.567)" fill="white"/>
<circle cx="1570.45" cy="326.636" r="2.17705" transform="rotate(-90 1570.45 326.636)" fill="white"/>
<circle cx="1570.45" cy="294.707" r="2.17705" transform="rotate(-90 1570.45 294.707)" fill="white"/>
<circle cx="1570.45" cy="262.776" r="2.17705" transform="rotate(-90 1570.45 262.776)" fill="white"/>
<circle cx="1602.38" cy="390.497" r="2.17705" transform="rotate(-90 1602.38 390.497)" fill="white"/>
<circle cx="1602.38" cy="358.567" r="2.17705" transform="rotate(-90 1602.38 358.567)" fill="white"/>
<circle cx="1602.38" cy="326.636" r="2.17705" transform="rotate(-90 1602.38 326.636)" fill="white"/>
<circle cx="1602.38" cy="294.707" r="2.17705" transform="rotate(-90 1602.38 294.707)" fill="white"/>
<circle cx="1602.38" cy="262.776" r="2.17705" transform="rotate(-90 1602.38 262.776)" fill="white"/>
<circle cx="1634.31" cy="390.497" r="2.17705" transform="rotate(-90 1634.31 390.497)" fill="white"/>
<circle cx="1634.31" cy="358.567" r="2.17705" transform="rotate(-90 1634.31 358.567)" fill="white"/>
<circle cx="1634.31" cy="326.636" r="2.17705" transform="rotate(-90 1634.31 326.636)" fill="white"/>
<circle cx="1634.31" cy="294.707" r="2.17705" transform="rotate(-90 1634.31 294.707)" fill="white"/>
<circle cx="1634.31" cy="262.776" r="2.17705" transform="rotate(-90 1634.31 262.776)" fill="white"/>
<circle cx="1666.24" cy="390.497" r="2.17705" transform="rotate(-90 1666.24 390.497)" fill="white"/>
<circle cx="1666.24" cy="358.567" r="2.17705" transform="rotate(-90 1666.24 358.567)" fill="white"/>
<circle cx="1666.24" cy="326.636" r="2.17705" transform="rotate(-90 1666.24 326.636)" fill="white"/>
<circle cx="1666.24" cy="294.707" r="2.17705" transform="rotate(-90 1666.24 294.707)" fill="white"/>
<circle cx="1666.24" cy="262.776" r="2.17705" transform="rotate(-90 1666.24 262.776)" fill="white"/>
<circle cx="1698.17" cy="390.497" r="2.17705" transform="rotate(-90 1698.17 390.497)" fill="white"/>
<circle cx="1698.17" cy="358.567" r="2.17705" transform="rotate(-90 1698.17 358.567)" fill="white"/>
<circle cx="1698.17" cy="326.636" r="2.17705" transform="rotate(-90 1698.17 326.636)" fill="white"/>
<circle cx="1698.17" cy="294.707" r="2.17705" transform="rotate(-90 1698.17 294.707)" fill="white"/>
<circle cx="1698.17" cy="262.776" r="2.17705" transform="rotate(-90 1698.17 262.776)" fill="white"/>
<circle cx="1730.1" cy="390.497" r="2.17705" transform="rotate(-90 1730.1 390.497)" fill="white"/>
<circle cx="1730.1" cy="358.567" r="2.17705" transform="rotate(-90 1730.1 358.567)" fill="white"/>
<circle cx="1730.1" cy="326.636" r="2.17705" transform="rotate(-90 1730.1 326.636)" fill="white"/>
<circle cx="1730.1" cy="294.707" r="2.17705" transform="rotate(-90 1730.1 294.707)" fill="white"/>
<circle cx="1730.1" cy="262.776" r="2.17705" transform="rotate(-90 1730.1 262.776)" fill="white"/>
<circle cx="1762.03" cy="390.497" r="2.17705" transform="rotate(-90 1762.03 390.497)" fill="white"/>
<circle cx="1762.03" cy="358.567" r="2.17705" transform="rotate(-90 1762.03 358.567)" fill="white"/>
<circle cx="1762.03" cy="326.636" r="2.17705" transform="rotate(-90 1762.03 326.636)" fill="white"/>
<circle cx="1762.03" cy="294.707" r="2.17705" transform="rotate(-90 1762.03 294.707)" fill="white"/>
<circle cx="1762.03" cy="262.776" r="2.17705" transform="rotate(-90 1762.03 262.776)" fill="white"/>
<circle cx="1793.96" cy="390.497" r="2.17705" transform="rotate(-90 1793.96 390.497)" fill="white"/>
<circle cx="1793.96" cy="358.567" r="2.17705" transform="rotate(-90 1793.96 358.567)" fill="white"/>
<circle cx="1793.96" cy="326.636" r="2.17705" transform="rotate(-90 1793.96 326.636)" fill="white"/>
<circle cx="1793.96" cy="294.707" r="2.17705" transform="rotate(-90 1793.96 294.707)" fill="white"/>
<circle cx="1793.96" cy="262.776" r="2.17705" transform="rotate(-90 1793.96 262.776)" fill="white"/>
<circle cx="1825.89" cy="390.497" r="2.17705" transform="rotate(-90 1825.89 390.497)" fill="white"/>
<circle cx="1825.89" cy="358.567" r="2.17705" transform="rotate(-90 1825.89 358.567)" fill="white"/>
<circle cx="1825.89" cy="326.636" r="2.17705" transform="rotate(-90 1825.89 326.636)" fill="white"/>
<circle cx="1825.89" cy="294.707" r="2.17705" transform="rotate(-90 1825.89 294.707)" fill="white"/>
<circle cx="1825.89" cy="262.776" r="2.17705" transform="rotate(-90 1825.89 262.776)" fill="white"/>
<circle cx="1857.82" cy="390.497" r="2.17705" transform="rotate(-90 1857.82 390.497)" fill="white"/>
<circle cx="1857.82" cy="358.567" r="2.17705" transform="rotate(-90 1857.82 358.567)" fill="white"/>
<circle cx="1857.82" cy="326.636" r="2.17705" transform="rotate(-90 1857.82 326.636)" fill="white"/>
<circle cx="1857.82" cy="294.707" r="2.17705" transform="rotate(-90 1857.82 294.707)" fill="white"/>
<circle cx="1857.82" cy="262.776" r="2.17705" transform="rotate(-90 1857.82 262.776)" fill="white"/>
<circle cx="1745.6" cy="208.081" r="78.4387" stroke="#FFBA49" stroke-width="5"/>
<circle cx="1558.08" cy="133.63" r="17.5802" stroke="#FFBA49" stroke-width="5"/>
</svg>
