<svg width="153" height="153" viewBox="0 0 153 153" fill="none" xmlns="http://www.w3.org/2000/svg">
<path d="M76.5 143.438L46.971 127.693C38.5528 123.214 31.5131 116.528 26.6073 108.351C21.7015 100.175 19.1149 90.8166 19.125 81.2812V19.125C19.1276 16.5896 20.1358 14.1589 21.9286 12.3661C23.7214 10.5733 26.1522 9.56503 28.6875 9.5625H124.313C126.848 9.56503 129.279 10.5733 131.071 12.3661C132.864 14.1589 133.872 16.5896 133.875 19.125V81.2812C133.885 90.8166 131.299 100.175 126.393 108.351C121.487 116.528 114.447 123.214 106.029 127.693L76.5 143.438ZM28.6875 19.125V81.2812C28.6796 89.0833 30.7966 96.7402 34.8112 103.43C38.8258 110.12 44.5865 115.59 51.475 119.254L76.5 132.598L101.525 119.259C108.414 115.595 114.175 110.124 118.19 103.433C122.205 96.7421 124.321 89.0841 124.313 81.2812V19.125H28.6875Z" fill="#0067AC"/>
<path d="M76.5 120.856V28.6875H114.75V80.3489C114.75 86.4092 113.104 92.3558 109.988 97.5539C106.873 102.752 102.404 107.007 97.0594 109.864L76.5 120.856Z" fill="#0067AC"/>
</svg>
