<svg width="108" height="144" viewBox="0 0 108 144" fill="none" xmlns="http://www.w3.org/2000/svg">
<path d="M48.186 52.686C49.031 51.841 49.5057 50.695 49.5057 49.5C49.5057 48.305 49.031 47.159 48.186 46.314C47.341 45.469 46.195 44.9943 45 44.9943C43.805 44.9943 42.659 45.469 41.814 46.314L29.106 59.022L25.533 55.764C24.6452 55.0052 23.4972 54.6213 22.3316 54.6933C21.1659 54.7653 20.074 55.2877 19.2864 56.1501C18.4988 57.0124 18.0774 58.1472 18.1111 59.3146C18.1448 60.482 18.631 61.5905 19.467 62.406L26.217 68.571C27.0723 69.3497 28.1945 69.7691 29.3508 69.7423C30.5072 69.7155 31.6088 69.2445 32.427 68.427L48.177 52.677L48.186 52.686ZM48.186 91.314C48.6051 91.732 48.9376 92.2286 49.1644 92.7753C49.3913 93.322 49.508 93.9081 49.508 94.5C49.508 95.0919 49.3913 95.678 49.1644 96.2247C48.9376 96.7714 48.6051 97.268 48.186 97.686L32.436 113.436C31.6162 114.255 30.512 114.726 29.3536 114.751C28.1951 114.776 27.0716 114.354 26.217 113.571L19.467 107.406C18.631 106.591 18.1448 105.482 18.1111 104.315C18.0774 103.147 18.4988 102.012 19.2864 101.15C20.074 100.288 21.1659 99.7653 22.3316 99.6933C23.4972 99.6213 24.6452 100.005 25.533 100.764L29.106 104.031L41.814 91.314C42.232 90.8949 42.7286 90.5624 43.2753 90.3356C43.822 90.1087 44.4081 89.992 45 89.992C45.5919 89.992 46.178 90.1087 46.7247 90.3356C47.2714 90.5624 47.768 90.8949 48.186 91.314ZM63 99C61.8065 99 60.6619 99.4741 59.818 100.318C58.9741 101.162 58.5 102.307 58.5 103.5C58.5 104.693 58.9741 105.838 59.818 106.682C60.6619 107.526 61.8065 108 63 108H85.5C86.6935 108 87.8381 107.526 88.682 106.682C89.5259 105.838 90 104.693 90 103.5C90 102.307 89.5259 101.162 88.682 100.318C87.8381 99.4741 86.6935 99 85.5 99H63ZM58.5 58.5C58.5 57.3065 58.9741 56.1619 59.818 55.318C60.6619 54.4741 61.8065 54 63 54H85.5C86.6935 54 87.8381 54.4741 88.682 55.318C89.5259 56.1619 90 57.3065 90 58.5C90 59.6935 89.5259 60.8381 88.682 61.682C87.8381 62.5259 86.6935 63 85.5 63H63C61.8065 63 60.6619 62.5259 59.818 61.682C58.9741 60.8381 58.5 59.6935 58.5 58.5ZM40.5 1.85613e-06C37.7071 -0.00146232 34.9824 0.86335 32.7016 2.47525C30.4207 4.08716 28.696 6.3668 27.765 9H13.5C9.91958 9 6.4858 10.4223 3.95406 12.9541C1.42232 15.4858 0 18.9196 0 22.5V130.5C0 134.08 1.42232 137.514 3.95406 140.046C6.4858 142.578 9.91958 144 13.5 144H94.5C98.0804 144 101.514 142.578 104.046 140.046C106.578 137.514 108 134.08 108 130.5V22.5C108 18.9196 106.578 15.4858 104.046 12.9541C101.514 10.4223 98.0804 9 94.5 9H80.235C79.304 6.3668 77.5793 4.08716 75.2984 2.47525C73.0176 0.86335 70.2929 -0.00146232 67.5 1.85613e-06H40.5ZM36 13.5C36 12.3065 36.4741 11.1619 37.318 10.318C38.1619 9.47411 39.3065 9 40.5 9H67.5C68.6935 9 69.8381 9.47411 70.682 10.318C71.5259 11.1619 72 12.3065 72 13.5C72 14.6935 71.5259 15.8381 70.682 16.682C69.8381 17.5259 68.6935 18 67.5 18H40.5C39.3065 18 38.1619 17.5259 37.318 16.682C36.4741 15.8381 36 14.6935 36 13.5ZM13.5 18H27.765C28.696 20.6332 30.4207 22.9128 32.7016 24.5247C34.9824 26.1367 37.7071 27.0015 40.5 27H67.5C70.2929 27.0015 73.0176 26.1367 75.2984 24.5247C77.5793 22.9128 79.304 20.6332 80.235 18H94.5C95.6935 18 96.8381 18.4741 97.682 19.318C98.5259 20.1619 99 21.3065 99 22.5V130.5C99 131.693 98.5259 132.838 97.682 133.682C96.8381 134.526 95.6935 135 94.5 135H13.5C12.3065 135 11.1619 134.526 10.318 133.682C9.47411 132.838 9 131.693 9 130.5V22.5C9 21.3065 9.47411 20.1619 10.318 19.318C11.1619 18.4741 12.3065 18 13.5 18Z" fill="#0067AC"/>
</svg>
