<svg width="85" height="59" viewBox="0 0 85 59" fill="none" xmlns="http://www.w3.org/2000/svg">
<path d="M0.770392 55.2815C4.36556 51.6456 7.19033 48.2577 9.24471 45.1176C11.2991 41.9776 12.3263 39.416 12.3263 37.4328C12.3263 36.2759 11.8983 35.2017 11.0423 34.2101C10.3575 33.2185 9.24471 32.1443 7.70393 30.9874C5.30715 29.1695 3.42397 27.2689 2.05438 25.2857C0.684794 23.3025 0 20.6583 0 17.3529C0 12.2297 1.62638 8.09803 4.87915 4.95798C8.13191 1.65266 12.2407 0 17.2054 0C22.5126 0 26.7925 1.65266 30.0453 4.95798C33.4693 8.09803 35.1813 12.2297 35.1813 17.3529C35.1813 23.7983 32.3565 30.9048 26.7069 38.6723C21.2286 46.2745 13.8671 53.0504 4.62235 59L0.770392 55.2815ZM50.5891 55.2815C54.1843 51.6456 57.0091 48.2577 59.0634 45.1176C61.1178 41.9776 62.145 39.416 62.145 37.4328C62.145 36.2759 61.717 35.2017 60.861 34.2101C60.1762 33.2185 59.0634 32.1443 57.5227 30.9874C55.1259 29.1695 53.2427 27.2689 51.8731 25.2857C50.5035 23.3025 49.8187 20.6583 49.8187 17.3529C49.8187 12.2297 51.4451 8.09803 54.6979 4.95798C57.9506 1.65266 62.0594 0 67.0242 0C72.3313 0 76.6113 1.65266 79.864 4.95798C83.288 8.09803 85 12.2297 85 17.3529C85 23.7983 82.1752 30.9048 76.5257 38.6723C71.0473 46.2745 63.6858 53.0504 54.4411 59L50.5891 55.2815Z" fill="#013880" fill-opacity="0.85"/>
</svg>
