<svg width="143" height="143" viewBox="0 0 143 143" fill="none" xmlns="http://www.w3.org/2000/svg">
<path d="M132.786 20.4286H81.7143V10.2143C81.7143 7.50529 80.6381 4.90724 78.7226 2.99169C76.807 1.07614 74.209 0 71.5 0H10.2143C7.50529 0 4.90724 1.07614 2.99169 2.99169C1.07614 4.90724 0 7.50529 0 10.2143V112.357C0 115.066 1.07614 117.664 2.99169 119.58C4.90724 121.495 7.50529 122.571 10.2143 122.571H61.2857V132.786C61.2857 135.495 62.3619 138.093 64.2774 140.008C66.193 141.924 68.791 143 71.5 143H132.786C135.495 143 138.093 141.924 140.008 140.008C141.924 138.093 143 135.495 143 132.786V30.6429C143 27.9339 141.924 25.3358 140.008 23.4203C138.093 21.5047 135.495 20.4286 132.786 20.4286ZM10.2143 66.3929H41.7254L28.5489 79.6204L35.75 86.8214L61.2857 61.2857L35.75 35.75L28.5489 42.9511L41.7254 56.1786H10.2143V10.2143H71.5V112.357H10.2143V66.3929ZM71.5 132.786V122.571C74.209 122.571 76.807 121.495 78.7226 119.58C80.6381 117.664 81.7143 115.066 81.7143 112.357V30.6429H132.786V76.6071H101.275L114.451 63.3796L107.25 56.1786L81.7143 81.7143L107.25 107.25L114.451 100.049L101.275 86.8214H132.786V132.786H71.5Z" fill="#0067AC"/>
</svg>
