<svg width="1880" height="473" viewBox="0 0 1880 473" fill="none" xmlns="http://www.w3.org/2000/svg">
<circle r="3.52358" transform="matrix(-1 0 0 1 1876.24 3.52358)" fill="#EF4358"/>
<circle r="3.52358" transform="matrix(-1 0 0 1 1824.56 3.52358)" fill="#EF4358"/>
<circle r="3.52358" transform="matrix(-1 0 0 1 1772.88 3.52358)" fill="#EF4358"/>
<circle r="3.52358" transform="matrix(-1 0 0 1 1721.2 3.52358)" fill="#EF4358"/>
<circle r="3.52358" transform="matrix(-1 0 0 1 1669.52 3.52358)" fill="#EF4358"/>
<circle r="3.52358" transform="matrix(-1 0 0 1 1876.24 55.2028)" fill="#EF4358"/>
<circle r="3.52358" transform="matrix(-1 0 0 1 1824.56 55.2028)" fill="#EF4358"/>
<circle r="3.52358" transform="matrix(-1 0 0 1 1772.88 55.2028)" fill="#EF4358"/>
<circle r="3.52358" transform="matrix(-1 0 0 1 1721.2 55.2028)" fill="#EF4358"/>
<circle r="3.52358" transform="matrix(-1 0 0 1 1669.52 55.2028)" fill="#EF4358"/>
<circle r="3.52358" transform="matrix(-1 0 0 1 1876.24 106.882)" fill="#EF4358"/>
<circle r="3.52358" transform="matrix(-1 0 0 1 1824.56 106.882)" fill="#EF4358"/>
<circle r="3.52358" transform="matrix(-1 0 0 1 1772.88 106.882)" fill="#EF4358"/>
<circle r="3.52358" transform="matrix(-1 0 0 1 1721.2 106.882)" fill="#EF4358"/>
<circle r="3.52358" transform="matrix(-1 0 0 1 1669.52 106.882)" fill="#EF4358"/>
<circle r="3.52358" transform="matrix(-1 0 0 1 1876.24 158.561)" fill="#EF4358"/>
<circle r="3.52358" transform="matrix(-1 0 0 1 1824.56 158.561)" fill="#EF4358"/>
<circle r="3.52358" transform="matrix(-1 0 0 1 1772.88 158.561)" fill="#EF4358"/>
<circle r="3.52358" transform="matrix(-1 0 0 1 1721.2 158.561)" fill="#EF4358"/>
<circle r="3.52358" transform="matrix(-1 0 0 1 1669.52 158.561)" fill="#EF4358"/>
<circle r="3.52358" transform="matrix(-1 0 0 1 1876.24 210.24)" fill="#EF4358"/>
<circle r="3.52358" transform="matrix(-1 0 0 1 1824.56 210.24)" fill="#EF4358"/>
<circle r="3.52358" transform="matrix(-1 0 0 1 1772.88 210.24)" fill="#EF4358"/>
<circle r="3.52358" transform="matrix(-1 0 0 1 1721.2 210.24)" fill="#EF4358"/>
<circle r="3.52358" transform="matrix(-1 0 0 1 1669.52 210.24)" fill="#EF4358"/>
<circle r="3.52358" transform="matrix(-1 0 0 1 1876.24 261.92)" fill="#EF4358"/>
<circle r="3.52358" transform="matrix(-1 0 0 1 1824.56 261.92)" fill="#EF4358"/>
<circle r="3.52358" transform="matrix(-1 0 0 1 1772.88 261.92)" fill="#EF4358"/>
<circle r="3.52358" transform="matrix(-1 0 0 1 1721.2 261.92)" fill="#EF4358"/>
<circle r="3.52358" transform="matrix(-1 0 0 1 1669.52 261.92)" fill="#EF4358"/>
<circle r="3.52358" transform="matrix(-1 0 0 1 1876.24 313.599)" fill="#EF4358"/>
<circle r="3.52358" transform="matrix(-1 0 0 1 1824.56 313.599)" fill="#EF4358"/>
<circle r="3.52358" transform="matrix(-1 0 0 1 1772.88 313.599)" fill="#EF4358"/>
<circle r="3.52358" transform="matrix(-1 0 0 1 1721.2 313.599)" fill="#EF4358"/>
<circle r="3.52358" transform="matrix(-1 0 0 1 1669.52 313.599)" fill="#EF4358"/>
<circle r="3.52358" transform="matrix(-1 0 0 1 1876.24 365.278)" fill="#EF4358"/>
<circle r="3.52358" transform="matrix(-1 0 0 1 1824.56 365.278)" fill="#EF4358"/>
<circle r="3.52358" transform="matrix(-1 0 0 1 1772.88 365.278)" fill="#EF4358"/>
<circle r="3.52358" transform="matrix(-1 0 0 1 1721.2 365.278)" fill="#EF4358"/>
<circle r="3.52358" transform="matrix(-1 0 0 1 1669.52 365.278)" fill="#EF4358"/>
<circle r="3.52358" transform="matrix(-1 0 0 1 1876.24 416.957)" fill="#EF4358"/>
<circle r="3.52358" transform="matrix(-1 0 0 1 1824.56 416.957)" fill="#EF4358"/>
<circle r="3.52358" transform="matrix(-1 0 0 1 1772.88 416.957)" fill="#EF4358"/>
<circle r="3.52358" transform="matrix(-1 0 0 1 1721.2 416.957)" fill="#EF4358"/>
<circle r="3.52358" transform="matrix(-1 0 0 1 1669.52 416.957)" fill="#EF4358"/>
<circle r="3.52358" transform="matrix(-1 0 0 1 1876.24 468.636)" fill="#EF4358"/>
<circle r="3.52358" transform="matrix(-1 0 0 1 1824.56 468.636)" fill="#EF4358"/>
<circle r="3.52358" transform="matrix(-1 0 0 1 1772.88 468.636)" fill="#EF4358"/>
<circle r="3.52358" transform="matrix(-1 0 0 1 1721.2 468.636)" fill="#EF4358"/>
<circle r="3.52358" transform="matrix(-1 0 0 1 1669.52 468.636)" fill="#EF4358"/>
<circle cx="463.637" cy="217.524" r="3.02358" transform="rotate(90 463.637 217.524)" fill="#013880" stroke="black"/>
<circle cx="463.637" cy="269.203" r="3.02358" transform="rotate(90 463.637 269.203)" fill="#013880" stroke="black"/>
<circle cx="463.637" cy="320.882" r="3.02358" transform="rotate(90 463.637 320.882)" fill="#013880" stroke="black"/>
<circle cx="463.637" cy="372.561" r="3.02358" transform="rotate(90 463.637 372.561)" fill="#013880" stroke="black"/>
<circle cx="463.637" cy="424.24" r="3.02358" transform="rotate(90 463.637 424.24)" fill="#013880" stroke="black"/>
<circle cx="411.958" cy="217.524" r="3.02358" transform="rotate(90 411.958 217.524)" fill="#013880" stroke="black"/>
<circle cx="411.958" cy="269.203" r="3.02358" transform="rotate(90 411.958 269.203)" fill="#013880" stroke="black"/>
<circle cx="411.958" cy="320.882" r="3.02358" transform="rotate(90 411.958 320.882)" fill="#013880" stroke="black"/>
<circle cx="411.958" cy="372.561" r="3.02358" transform="rotate(90 411.958 372.561)" fill="#013880" stroke="black"/>
<circle cx="411.957" cy="424.24" r="3.02358" transform="rotate(90 411.957 424.24)" fill="#013880" stroke="black"/>
<circle cx="360.278" cy="217.524" r="3.02358" transform="rotate(90 360.278 217.524)" fill="#013880" stroke="black"/>
<circle cx="360.278" cy="269.203" r="3.02358" transform="rotate(90 360.278 269.203)" fill="#013880" stroke="black"/>
<circle cx="360.278" cy="320.882" r="3.02358" transform="rotate(90 360.278 320.882)" fill="#013880" stroke="black"/>
<circle cx="360.278" cy="372.561" r="3.02358" transform="rotate(90 360.278 372.561)" fill="#013880" stroke="black"/>
<circle cx="360.278" cy="424.24" r="3.02358" transform="rotate(90 360.278 424.24)" fill="#013880" stroke="black"/>
<circle cx="308.599" cy="217.524" r="3.02358" transform="rotate(90 308.599 217.524)" fill="#013880" stroke="black"/>
<circle cx="308.599" cy="269.203" r="3.02358" transform="rotate(90 308.599 269.203)" fill="#013880" stroke="black"/>
<circle cx="308.599" cy="320.882" r="3.02358" transform="rotate(90 308.599 320.882)" fill="#013880" stroke="black"/>
<circle cx="308.599" cy="372.561" r="3.02358" transform="rotate(90 308.599 372.561)" fill="#013880" stroke="black"/>
<circle cx="308.599" cy="424.24" r="3.02358" transform="rotate(90 308.599 424.24)" fill="#013880" stroke="black"/>
<circle cx="256.92" cy="217.524" r="3.02358" transform="rotate(90 256.92 217.524)" fill="#013880" stroke="black"/>
<circle cx="256.92" cy="269.203" r="3.02358" transform="rotate(90 256.92 269.203)" fill="#013880" stroke="black"/>
<circle cx="256.92" cy="320.882" r="3.02358" transform="rotate(90 256.92 320.882)" fill="#013880" stroke="black"/>
<circle cx="256.92" cy="372.561" r="3.02358" transform="rotate(90 256.92 372.561)" fill="#013880" stroke="black"/>
<circle cx="256.92" cy="424.24" r="3.02358" transform="rotate(90 256.92 424.24)" fill="#013880" stroke="black"/>
<circle cx="205.241" cy="217.524" r="3.02358" transform="rotate(90 205.241 217.524)" fill="#013880" stroke="black"/>
<circle cx="205.241" cy="269.203" r="3.02358" transform="rotate(90 205.241 269.203)" fill="#013880" stroke="black"/>
<circle cx="205.241" cy="320.882" r="3.02358" transform="rotate(90 205.241 320.882)" fill="#013880" stroke="black"/>
<circle cx="205.241" cy="372.561" r="3.02358" transform="rotate(90 205.241 372.561)" fill="#013880" stroke="black"/>
<circle cx="205.241" cy="424.24" r="3.02358" transform="rotate(90 205.241 424.24)" fill="#013880" stroke="black"/>
<circle cx="153.561" cy="217.524" r="3.02358" transform="rotate(90 153.561 217.524)" fill="#013880" stroke="black"/>
<circle cx="153.561" cy="269.203" r="3.02358" transform="rotate(90 153.561 269.203)" fill="#013880" stroke="black"/>
<circle cx="153.561" cy="320.882" r="3.02358" transform="rotate(90 153.561 320.882)" fill="#013880" stroke="black"/>
<circle cx="153.561" cy="372.561" r="3.02358" transform="rotate(90 153.561 372.561)" fill="#013880" stroke="black"/>
<circle cx="153.561" cy="424.24" r="3.02358" transform="rotate(90 153.561 424.24)" fill="#013880" stroke="black"/>
<circle cx="101.883" cy="217.524" r="3.02358" transform="rotate(90 101.883 217.524)" fill="#013880" stroke="black"/>
<circle cx="101.883" cy="269.203" r="3.02358" transform="rotate(90 101.883 269.203)" fill="#013880" stroke="black"/>
<circle cx="101.883" cy="320.882" r="3.02358" transform="rotate(90 101.883 320.882)" fill="#013880" stroke="black"/>
<circle cx="101.883" cy="372.561" r="3.02358" transform="rotate(90 101.883 372.561)" fill="#013880" stroke="black"/>
<circle cx="101.883" cy="424.24" r="3.02358" transform="rotate(90 101.883 424.24)" fill="#013880" stroke="black"/>
<circle cx="50.203" cy="217.524" r="3.02358" transform="rotate(90 50.203 217.524)" fill="#013880" stroke="black"/>
<circle cx="50.203" cy="269.203" r="3.02358" transform="rotate(90 50.203 269.203)" fill="#013880" stroke="black"/>
<circle cx="50.203" cy="320.882" r="3.02358" transform="rotate(90 50.203 320.882)" fill="#013880" stroke="black"/>
<circle cx="50.203" cy="372.561" r="3.02358" transform="rotate(90 50.203 372.561)" fill="#013880" stroke="black"/>
<circle cx="50.203" cy="424.24" r="3.02358" transform="rotate(90 50.203 424.24)" fill="#013880" stroke="black"/>
<circle cx="-1.47573" cy="217.524" r="3.02358" transform="rotate(90 -1.47573 217.524)" fill="#013880" stroke="black"/>
<circle cx="-1.47573" cy="269.203" r="3.02358" transform="rotate(90 -1.47573 269.203)" fill="#013880" stroke="black"/>
<circle cx="-1.47573" cy="320.882" r="3.02358" transform="rotate(90 -1.47573 320.882)" fill="#013880" stroke="black"/>
<circle cx="-1.47573" cy="372.561" r="3.02358" transform="rotate(90 -1.47573 372.561)" fill="#013880" stroke="black"/>
<circle cx="-1.47573" cy="424.24" r="3.02358" transform="rotate(90 -1.47573 424.24)" fill="#013880" stroke="black"/>
</svg>
