<svg width="80" height="88" viewBox="0 0 80 88" fill="none" xmlns="http://www.w3.org/2000/svg">
<path d="M44 8H8V72H56V20H44V8ZM8 0H48L64 16V72C64 74.1217 63.1572 76.1566 61.6569 77.6569C60.1566 79.1571 58.1217 80 56 80H8C5.87827 80 3.84344 79.1571 2.34315 77.6569C0.842854 76.1566 0 74.1217 0 72V8C0 5.87827 0.842854 3.84344 2.34315 2.34315C3.84344 0.842854 5.87827 0 8 0ZM16 36H48V44H16V36ZM16 52H48V60H16V52Z" fill="#436FA8"/>
<path d="M58.906 55.5606V47.9219C58.906 46.6165 58.3875 45.3646 57.4645 44.4416C56.5414 43.5186 55.2895 43 53.9842 43C52.6788 43 51.4269 43.5186 50.5039 44.4416C49.5809 45.3646 49.0623 46.6165 49.0623 47.9219V62.9406L45.6873 63.6156C44.6528 63.823 43.7336 64.4105 43.1109 65.2623C42.4882 66.1141 42.2073 67.1682 42.3235 68.2169L43.2939 76.9525C43.4186 78.0692 43.8092 79.1397 44.4329 80.0744L48.4632 86.1213C48.8485 86.6991 49.3704 87.173 49.9827 87.5007C50.595 87.8284 51.2787 88 51.9732 88H69.931C70.6747 87.9998 71.405 87.803 72.0481 87.4296C72.6911 87.0562 73.2241 86.5194 73.5929 85.8738L77.5164 79.0084C78.2023 77.8084 78.6278 76.4773 78.7651 75.1019L79.5273 67.4659C79.6055 66.684 79.519 65.8943 79.2733 65.1478C79.0276 64.4013 78.6283 63.7146 78.1009 63.1319C77.5736 62.5492 76.9301 62.0835 76.2118 61.7647C75.4934 61.446 74.7163 61.2813 73.9304 61.2812H72.2964C72.1208 61.0432 71.9379 60.8106 71.7479 60.5837C71.2107 59.9397 70.3135 58.9862 69.2729 58.57C68.2492 58.1594 66.8935 58.1987 66.016 58.2662L65.6448 58.3C65.3454 57.5335 64.7885 56.8951 64.0698 56.4944C63.4228 56.1212 62.7229 55.8481 61.9942 55.6844C61.1223 55.51 59.9157 55.5213 59.041 55.555L58.906 55.5606Z" fill="#DAA248"/>
</svg>
