<svg width="473" height="214" viewBox="0 0 473 214" fill="none" xmlns="http://www.w3.org/2000/svg">
<ellipse cx="468.637" cy="3.52393" rx="3.52344" ry="3.52356" transform="rotate(90 468.637 3.52393)" fill="#EF4358"/>
<ellipse cx="468.637" cy="55.2029" rx="3.52368" ry="3.52356" transform="rotate(90 468.637 55.2029)" fill="#EF4358"/>
<ellipse cx="468.637" cy="106.882" rx="3.52368" ry="3.52356" transform="rotate(90 468.637 106.882)" fill="#EF4358"/>
<ellipse cx="468.637" cy="158.561" rx="3.52368" ry="3.52356" transform="rotate(90 468.637 158.561)" fill="#EF4358"/>
<ellipse cx="468.637" cy="210.24" rx="3.52368" ry="3.52356" transform="rotate(90 468.637 210.24)" fill="#EF4358"/>
<ellipse cx="416.958" cy="3.52368" rx="3.52368" ry="3.52356" transform="rotate(90 416.958 3.52368)" fill="#EF4358"/>
<ellipse cx="416.958" cy="55.2029" rx="3.52368" ry="3.52356" transform="rotate(90 416.958 55.2029)" fill="#EF4358"/>
<ellipse cx="416.958" cy="106.882" rx="3.52368" ry="3.52356" transform="rotate(90 416.958 106.882)" fill="#EF4358"/>
<ellipse cx="416.958" cy="158.561" rx="3.52368" ry="3.52356" transform="rotate(90 416.958 158.561)" fill="#EF4358"/>
<ellipse cx="416.958" cy="210.24" rx="3.52368" ry="3.52356" transform="rotate(90 416.958 210.24)" fill="#EF4358"/>
<ellipse cx="365.278" cy="3.52368" rx="3.52368" ry="3.52356" transform="rotate(90 365.278 3.52368)" fill="#EF4358"/>
<ellipse cx="365.278" cy="55.2029" rx="3.52368" ry="3.52356" transform="rotate(90 365.278 55.2029)" fill="#EF4358"/>
<ellipse cx="365.278" cy="106.882" rx="3.52368" ry="3.52356" transform="rotate(90 365.278 106.882)" fill="#EF4358"/>
<ellipse cx="365.278" cy="158.561" rx="3.52368" ry="3.52356" transform="rotate(90 365.278 158.561)" fill="#EF4358"/>
<ellipse cx="365.278" cy="210.24" rx="3.52368" ry="3.52356" transform="rotate(90 365.278 210.24)" fill="#EF4358"/>
<ellipse cx="313.599" cy="3.52368" rx="3.52368" ry="3.52356" transform="rotate(90 313.599 3.52368)" fill="#EF4358"/>
<ellipse cx="313.599" cy="55.2029" rx="3.52368" ry="3.52356" transform="rotate(90 313.599 55.2029)" fill="#EF4358"/>
<ellipse cx="313.599" cy="106.882" rx="3.52368" ry="3.52356" transform="rotate(90 313.599 106.882)" fill="#EF4358"/>
<ellipse cx="313.599" cy="158.561" rx="3.52368" ry="3.52356" transform="rotate(90 313.599 158.561)" fill="#EF4358"/>
<ellipse cx="313.599" cy="210.24" rx="3.52368" ry="3.52356" transform="rotate(90 313.599 210.24)" fill="#EF4358"/>
<ellipse cx="261.92" cy="3.52368" rx="3.52368" ry="3.52356" transform="rotate(90 261.92 3.52368)" fill="#EF4358"/>
<ellipse cx="261.92" cy="55.2029" rx="3.52368" ry="3.52356" transform="rotate(90 261.92 55.2029)" fill="#EF4358"/>
<ellipse cx="261.92" cy="106.882" rx="3.52368" ry="3.52356" transform="rotate(90 261.92 106.882)" fill="#EF4358"/>
<ellipse cx="261.92" cy="158.561" rx="3.52368" ry="3.52356" transform="rotate(90 261.92 158.561)" fill="#EF4358"/>
<ellipse cx="261.92" cy="210.24" rx="3.52368" ry="3.52356" transform="rotate(90 261.92 210.24)" fill="#EF4358"/>
<ellipse cx="210.241" cy="3.52368" rx="3.52368" ry="3.52356" transform="rotate(90 210.241 3.52368)" fill="#EF4358"/>
<ellipse cx="210.241" cy="55.2029" rx="3.52368" ry="3.52356" transform="rotate(90 210.241 55.2029)" fill="#EF4358"/>
<ellipse cx="210.241" cy="106.882" rx="3.52368" ry="3.52356" transform="rotate(90 210.241 106.882)" fill="#EF4358"/>
<ellipse cx="210.241" cy="158.561" rx="3.52368" ry="3.52356" transform="rotate(90 210.241 158.561)" fill="#EF4358"/>
<ellipse cx="210.241" cy="210.24" rx="3.52368" ry="3.52356" transform="rotate(90 210.241 210.24)" fill="#EF4358"/>
<ellipse cx="158.562" cy="3.52368" rx="3.52368" ry="3.52356" transform="rotate(90 158.562 3.52368)" fill="#EF4358"/>
<ellipse cx="158.562" cy="55.2029" rx="3.52368" ry="3.52356" transform="rotate(90 158.562 55.2029)" fill="#EF4358"/>
<ellipse cx="158.562" cy="106.882" rx="3.52368" ry="3.52356" transform="rotate(90 158.562 106.882)" fill="#EF4358"/>
<ellipse cx="158.562" cy="158.561" rx="3.52344" ry="3.52356" transform="rotate(90 158.562 158.561)" fill="#EF4358"/>
<ellipse cx="158.562" cy="210.24" rx="3.52344" ry="3.52356" transform="rotate(90 158.562 210.24)" fill="#EF4358"/>
<ellipse cx="106.882" cy="3.52368" rx="3.52368" ry="3.52356" transform="rotate(90 106.882 3.52368)" fill="#EF4358"/>
<ellipse cx="106.882" cy="55.2029" rx="3.52368" ry="3.52356" transform="rotate(90 106.882 55.2029)" fill="#EF4358"/>
<ellipse cx="106.882" cy="106.882" rx="3.52368" ry="3.52356" transform="rotate(90 106.882 106.882)" fill="#EF4358"/>
<ellipse cx="106.882" cy="158.561" rx="3.52344" ry="3.52356" transform="rotate(90 106.882 158.561)" fill="#EF4358"/>
<ellipse cx="106.882" cy="210.24" rx="3.52344" ry="3.52356" transform="rotate(90 106.882 210.24)" fill="#EF4358"/>
<ellipse cx="55.2032" cy="3.52368" rx="3.52368" ry="3.52362" transform="rotate(90 55.2032 3.52368)" fill="#EF4358"/>
<ellipse cx="55.2032" cy="55.2029" rx="3.52368" ry="3.52362" transform="rotate(90 55.2032 55.2029)" fill="#EF4358"/>
<ellipse cx="55.2032" cy="106.882" rx="3.52368" ry="3.52362" transform="rotate(90 55.2032 106.882)" fill="#EF4358"/>
<ellipse cx="55.2032" cy="158.561" rx="3.52344" ry="3.52362" transform="rotate(90 55.2032 158.561)" fill="#EF4358"/>
<ellipse cx="55.2032" cy="210.24" rx="3.52344" ry="3.52362" transform="rotate(90 55.2032 210.24)" fill="#EF4358"/>
<ellipse cx="3.52402" cy="3.52368" rx="3.52368" ry="3.52359" transform="rotate(90 3.52402 3.52368)" fill="#EF4358"/>
<ellipse cx="3.52405" cy="55.2029" rx="3.52368" ry="3.52356" transform="rotate(90 3.52405 55.2029)" fill="#EF4358"/>
<ellipse cx="3.52405" cy="106.882" rx="3.52368" ry="3.52356" transform="rotate(90 3.52405 106.882)" fill="#EF4358"/>
<ellipse cx="3.52405" cy="158.561" rx="3.52344" ry="3.52356" transform="rotate(90 3.52405 158.561)" fill="#EF4358"/>
<ellipse cx="3.52405" cy="210.24" rx="3.52344" ry="3.52356" transform="rotate(90 3.52405 210.24)" fill="#EF4358"/>
</svg>
